<svg xmlns="http://www.w3.org/2000/svg" viewBox="0 0 1000 650">
  <defs>
    <linearGradient id="paper" x1="0" x2="1">
      <stop offset="0%" stop-color="#ead9b4"/>
      <stop offset="100%" stop-color="#b27f4f"/>
    </linearGradient>
    <radialGradient id="forgeGlow" cx="50%" cy="50%" r="45%">
      <stop offset="0%" stop-color="#ffe6aa" stop-opacity="0.95"/>
      <stop offset="100%" stop-color="#d99149" stop-opacity="0.08"/>
    </radialGradient>
  </defs>
  <rect width="1000" height="650" rx="30" fill="url(#paper)"/>
  <circle cx="560" cy="375" r="160" fill="url(#forgeGlow)"/>
  <g fill="none" stroke="#523923" stroke-width="11" stroke-linecap="round">
    <path d="M90 165 C185 95, 300 105, 395 155 S575 265, 700 220 S860 120, 935 190"/>
    <path d="M165 265 C270 225, 365 290, 390 385 S345 560, 220 560 S82 420, 165 265 Z"/>
    <path d="M435 250 C525 185, 675 205, 730 320 S665 540, 515 545 S350 350, 435 250 Z"/>
    <path d="M760 300 C835 260, 905 315, 892 400 S805 500, 738 452 S688 340, 760 300 Z"/>
  </g>
  <g stroke="#8a673d" stroke-width="4" fill="none" opacity="0.65">
    <path d="M175 205 C255 165, 355 185, 445 240"/>
    <path d="M510 220 C610 195, 760 210, 855 290"/>
    <path d="M410 575 C560 525, 685 525, 840 585"/>
  </g>
  <g font-family="Cinzel, serif" fill="#2d1b10">
    <text x="88" y="78" font-size="36">Mine oubliee de Phancreux</text>
    <text x="150" y="205" font-size="26">Entree</text>
    <text x="220" y="392" font-size="30">Crypte</text>
    <text x="480" y="380" font-size="30">Forge des Sorts</text>
    <text x="768" y="390" font-size="28">Salle finale</text>
    <text x="675" y="170" font-size="24">Galeries</text>
  </g>
  <g fill="#6c4c2b">
    <circle cx="205" cy="220" r="11"/>
    <circle cx="272" cy="410" r="11"/>
    <circle cx="562" cy="380" r="11"/>
    <circle cx="812" cy="390" r="11"/>
  </g>
  <rect x="775" y="525" width="170" height="78" rx="14" fill="#f3e8cb" stroke="#7f5c33" stroke-width="3"/>
  <text x="803" y="553" font-family="Cinzel, serif" font-size="18" fill="#352211">FORGE</text>
  <text x="790" y="580" font-size="18" fill="#352211">Magie residuelle</text>
</svg>
