<svg xmlns="http://www.w3.org/2000/svg" viewBox="0 0 1000 650">
  <defs>
    <linearGradient id="paper" x1="0" x2="1">
      <stop offset="0%" stop-color="#eddcb8"/>
      <stop offset="100%" stop-color="#bf8c57"/>
    </linearGradient>
    <filter id="shadow"><feDropShadow dx="0" dy="8" stdDeviation="8" flood-color="#000" flood-opacity="0.18"/></filter>
  </defs>
  <rect width="1000" height="650" rx="30" fill="url(#paper)"/>
  <g opacity="0.12" stroke="#6a4928" stroke-width="2">
    <path d="M40 70 H960"/><path d="M40 140 H960"/><path d="M40 210 H960"/><path d="M40 280 H960"/><path d="M40 350 H960"/><path d="M40 420 H960"/><path d="M40 490 H960"/><path d="M40 560 H960"/>
    <path d="M100 40 V610"/><path d="M220 40 V610"/><path d="M340 40 V610"/><path d="M460 40 V610"/><path d="M580 40 V610"/><path d="M700 40 V610"/><path d="M820 40 V610"/>
  </g>
  <path d="M75 505 C180 420, 310 375, 445 305 S715 190, 930 85" fill="none" stroke="#7c5631" stroke-width="11" stroke-linecap="round"/>
  <path d="M90 520 C200 435, 320 380, 460 315 S720 205, 940 100" fill="none" stroke="#f0e1bf" stroke-width="4" stroke-dasharray="10 14" opacity="0.75"/>
  <g fill="#c8a46f" opacity="0.65">
    <path d="M110 120 C220 70, 305 100, 360 180 C290 215, 210 235, 120 215 Z"/>
    <path d="M720 355 C805 325, 885 340, 930 405 C860 455, 785 470, 715 438 Z"/>
  </g>
  <g stroke="#6d4d2e" stroke-width="8" fill="#ddc395" filter="url(#shadow)">
    <path d="M180 185 L355 205 L322 335 L145 318 Z"/>
    <path d="M450 160 L615 175 L602 310 L430 300 Z"/>
    <path d="M660 390 L825 420 L790 560 L630 535 Z"/>
    <path d="M315 385 L485 405 L460 550 L280 520 Z"/>
  </g>
  <g fill="#6b4a2a">
    <circle cx="252" cy="254" r="11"/>
    <circle cx="528" cy="242" r="11"/>
    <circle cx="705" cy="474" r="11"/>
    <circle cx="380" cy="470" r="11"/>
  </g>
  <g font-family="Cinzel, serif" fill="#352211">
    <text x="70" y="88" font-size="36">Phandaline</text>
    <text x="160" y="165" font-size="22">Quartier ouest</text>
    <text x="470" y="145" font-size="22">Quartier central</text>
    <text x="655" y="380" font-size="22">Secteur marchand</text>
    <text x="305" y="375" font-size="22">Place civile</text>
    <text x="690" y="110" font-size="24">Route de Triboar</text>
    <text x="205" y="258" font-size="26">Stonehill</text>
    <text x="485" y="240" font-size="26">Sanctuaire</text>
    <text x="666" y="475" font-size="26">Comptoir</text>
    <text x="325" y="470" font-size="26">Mairie</text>
  </g>
  <g stroke="#8a673b" stroke-width="4" opacity="0.6" fill="none">
    <path d="M95 95 C240 40, 405 55, 585 90"/>
    <path d="M570 585 C700 525, 815 450, 900 338"/>
  </g>
  <rect x="780" y="520" width="150" height="74" rx="14" fill="#f3e8cb" stroke="#7f5c33" stroke-width="3"/>
  <text x="803" y="548" font-family="Cinzel, serif" font-size="18" fill="#352211">LEGENDE</text>
  <circle cx="820" cy="570" r="8" fill="#6b4a2a"/><text x="840" y="576" font-size="18" fill="#352211">Point cle</text>
</svg>
