<svg xmlns="http://www.w3.org/2000/svg" viewBox="0 0 1000 650">
  <defs>
    <linearGradient id="paper" x1="0" x2="1">
      <stop offset="0%" stop-color="#e5d5b2"/>
      <stop offset="100%" stop-color="#aa784a"/>
    </linearGradient>
  </defs>
  <rect width="1000" height="650" rx="30" fill="url(#paper)"/>
  <path d="M0 330 C180 290, 300 410, 470 365 S755 255, 1000 305 L1000 460 C770 500, 615 420, 450 455 S170 520, 0 470 Z" fill="#6c99a6" opacity="0.58"/>
  <g fill="none" stroke="#4f3924" stroke-width="12" stroke-linejoin="round">
    <path d="M120 95 L305 95 L345 200 L310 335 L170 405 L90 330 L75 190 Z"/>
    <path d="M350 190 L555 170 L670 240 L685 390 L565 495 L355 470 L300 340 Z"/>
    <path d="M685 235 L850 225 L930 330 L845 450 L700 425 Z"/>
    <path d="M180 415 L315 505 L280 585 L120 565 L70 470 Z"/>
  </g>
  <g stroke="#85623c" stroke-width="5" opacity="0.68" fill="none">
    <path d="M155 260 C240 250, 300 280, 355 338"/>
    <path d="M395 165 C525 132, 700 155, 850 230"/>
    <path d="M110 450 C165 445, 225 470, 310 505"/>
  </g>
  <g font-family="Cinzel, serif" fill="#2d1c10">
    <text x="92" y="70" font-size="36">Repaire des Cragmaw</text>
    <text x="135" y="175" font-size="28">Entree</text>
    <text x="410" y="322" font-size="28">Salle centrale</text>
    <text x="742" y="325" font-size="28">Captifs</text>
    <text x="158" y="520" font-size="28">Chenil</text>
    <text x="517" y="415" font-size="28">Barrage</text>
  </g>
  <g fill="#6b4b2c">
    <circle cx="186" cy="188" r="11"/>
    <circle cx="230" cy="515" r="11"/>
    <circle cx="558" cy="404" r="11"/>
    <circle cx="770" cy="325" r="11"/>
  </g>
  <rect x="760" y="540" width="180" height="68" rx="14" fill="#f3e8cb" stroke="#7f5c33" stroke-width="3"/>
  <text x="785" y="567" font-family="Cinzel, serif" font-size="18" fill="#352211">EAU = DANGER</text>
  <text x="784" y="592" font-size="18" fill="#352211">Terrain dynamique</text>
</svg>
